<svg xmlns="http://www.w3.org/2000/svg" viewBox="0 0 1600 900" width="1600" height="900"><rect width="1600" height="900" fill="#fef1e0"/><rect x="0" y="640" width="1600" height="260" fill="#fddcb3" /><rect x="160" y="260" width="220" height="380" fill="#243553" /><rect x="194" y="300" width="50" height="40" fill="#fbc27d" /><rect x="294" y="300" width="50" height="40" fill="#18263f" /><rect x="194" y="380" width="50" height="40" fill="#18263f" /><rect x="294" y="380" width="50" height="40" fill="#18263f" /><rect x="194" y="460" width="50" height="40" fill="#18263f" /><rect x="294" y="460" width="50" height="40" fill="#18263f" /><rect x="194" y="540" width="50" height="40" fill="#18263f" /><rect x="294" y="540" width="50" height="40" fill="#fbc27d" /><rect x="420" y="160" width="240" height="480" fill="#0f1a2e" /><rect x="454" y="200" width="60" height="40" fill="#18263f" /><rect x="564" y="200" width="60" height="40" fill="#18263f" /><rect x="454" y="280" width="60" height="40" fill="#18263f" /><rect x="564" y="280" width="60" height="40" fill="#18263f" /><rect x="454" y="360" width="60" height="40" fill="#18263f" /><rect x="564" y="360" width="60" height="40" fill="#fbc27d" /><rect x="454" y="440" width="60" height="40" fill="#fbc27d" /><rect x="564" y="440" width="60" height="40" fill="#18263f" /><rect x="454" y="520" width="60" height="40" fill="#18263f" /><rect x="564" y="520" width="60" height="40" fill="#18263f" /><rect x="454" y="600" width="60" height="40" fill="#18263f" /><rect x="564" y="600" width="60" height="40" fill="#18263f" /><rect x="700" y="300" width="200" height="340" fill="#243553" /><rect x="734" y="340" width="40" height="40" fill="#18263f" /><rect x="824" y="340" width="40" height="40" fill="#18263f" /><rect x="734" y="420" width="40" height="40" fill="#18263f" /><rect x="824" y="420" width="40" height="40" fill="#fbc27d" /><rect x="734" y="500" width="40" height="40" fill="#fbc27d" /><rect x="824" y="500" width="40" height="40" fill="#18263f" /><rect x="734" y="580" width="40" height="40" fill="#18263f" /><rect x="824" y="580" width="40" height="40" fill="#18263f" /><rect x="940" y="210" width="260" height="430" fill="#0f1a2e" /><rect x="974" y="250" width="70" height="40" fill="#18263f" /><rect x="1094" y="250" width="70" height="40" fill="#fbc27d" /><rect x="974" y="330" width="70" height="40" fill="#fbc27d" /><rect x="1094" y="330" width="70" height="40" fill="#18263f" /><rect x="974" y="410" width="70" height="40" fill="#18263f" /><rect x="1094" y="410" width="70" height="40" fill="#18263f" /><rect x="974" y="490" width="70" height="40" fill="#18263f" /><rect x="1094" y="490" width="70" height="40" fill="#18263f" /><rect x="974" y="570" width="70" height="40" fill="#18263f" /><rect x="1094" y="570" width="70" height="40" fill="#fbc27d" /><g transform="rotate(-6 1350 470)"><rect x="1240" y="260" width="260" height="340" fill="#ffffff" /><text x="1270" y="320" fill="#0f1a2e" font-size="34" font-weight="800" font-family="Archivo, 'Segoe UI', system-ui, sans-serif" >LEASE</text><rect x="1270" y="350" width="200" height="14" fill="#d7d3d3" /><rect x="1270" y="390" width="140" height="14" fill="#d7d3d3" /><rect x="1270" y="430" width="200" height="14" fill="#d7d3d3" /><rect x="1270" y="470" width="140" height="14" fill="#d7d3d3" /><rect x="1270" y="510" width="200" height="14" fill="#d7d3d3" /><circle cx="1440" cy="550" r="34" fill="#f7941d"/></g></svg>
