<svg xmlns="http://www.w3.org/2000/svg" viewBox="0 0 1600 900" width="1600" height="900"><rect width="1600" height="900" fill="#0f1a2e"/><defs><pattern id="dots2" width="30" height="30" patternUnits="userSpaceOnUse"><circle cx="15" cy="15" r="1.6" fill="rgba(43,181,232,0.25)"/></pattern></defs><rect width="1600" height="900" fill="url(#dots2)"/><rect x="260" y="250" width="760" height="130" fill="#18263f" stroke="#f7941d" stroke-width="4"/><rect x="260" y="250" width="110" height="130" fill="#f7941d" /><text x="300" y="338" fill="#0f1a2e" font-size="64" font-weight="800" font-family="Archivo, 'Segoe UI', system-ui, sans-serif" >1</text><text x="410" y="330" fill="#f5f4f1" font-size="40" font-weight="700" font-family="Archivo, 'Segoe UI', system-ui, sans-serif" >Invoice extraction</text><rect x="300" y="420" width="760" height="130" fill="#18263f" stroke="#2bb5e8" stroke-width="4"/><rect x="300" y="420" width="110" height="130" fill="#2bb5e8" /><text x="340" y="508" fill="#0f1a2e" font-size="64" font-weight="800" font-family="Archivo, 'Segoe UI', system-ui, sans-serif" >2</text><text x="450" y="500" fill="#f5f4f1" font-size="40" font-weight="700" font-family="Archivo, 'Segoe UI', system-ui, sans-serif" >Demand forecast</text><rect x="340" y="590" width="760" height="130" fill="#18263f" stroke="#243553" stroke-width="4"/><rect x="340" y="590" width="110" height="130" fill="#243553" /><text x="380" y="678" fill="#f5f4f1" font-size="64" font-weight="800" font-family="Archivo, 'Segoe UI', system-ui, sans-serif" >3</text><text x="490" y="670" fill="#f5f4f1" font-size="40" font-weight="700" font-family="Archivo, 'Segoe UI', system-ui, sans-serif" >Policy assistant</text><circle cx="1260" cy="420" r="150" fill="none" stroke="#2bb5e8" stroke-width="6"/><circle cx="1260" cy="420" r="60" fill="#2bb5e8"/><line x1="1340" y1="420" x2="1400" y2="420" stroke="#2bb5e8" stroke-width="6" /><line x1="1300" y1="489.28203230275506" x2="1330" y2="541.2435565298214" stroke="#2bb5e8" stroke-width="6" /><line x1="1220" y1="489.2820323027551" x2="1190" y2="541.2435565298214" stroke="#2bb5e8" stroke-width="6" /><line x1="1180" y1="420" x2="1120" y2="420" stroke="#2bb5e8" stroke-width="6" /><line x1="1220" y1="350.71796769724494" x2="1190" y2="298.7564434701786" stroke="#2bb5e8" stroke-width="6" /><line x1="1300" y1="350.71796769724494" x2="1330" y2="298.7564434701786" stroke="#2bb5e8" stroke-width="6" /></svg>
